<svg width="89" height="50" viewBox="0 0 89 50" fill="none" xmlns="http://www.w3.org/2000/svg">
<ellipse cx="48" cy="25" rx="41" ry="25" fill="#FFF500"/>
<path d="M88.5 25C88.5 31.6629 84.0688 37.7766 76.7311 42.2508C69.4021 46.7197 59.2454 49.5 48 49.5C36.7546 49.5 26.5979 46.7197 19.2689 42.2508C11.9312 37.7766 7.5 31.6629 7.5 25C7.5 18.3371 11.9312 12.2234 19.2689 7.74923C26.5979 3.28034 36.7546 0.5 48 0.5C59.2454 0.5 69.4021 3.28034 76.7311 7.74923C84.0688 12.2234 88.5 18.3371 88.5 25Z" stroke="black" stroke-opacity="0.35"/>
<g filter="url(#filter0_i_0_1)">
<path d="M0.216092 11H2.49609V36.76H11.3761V39H0.216092V11Z" fill="#FF0E0E"/>
<path d="M20.5352 39H16.6952V11H20.5352C24.3752 11 27.6285 12.4133 30.2952 15.24C32.9618 18.0667 34.2952 21.32 34.2952 25C34.2952 28.68 32.9618 31.9333 30.2952 34.76C27.6285 37.5867 24.3752 39 20.5352 39ZM20.5352 37.8C24.0285 37.8 26.9885 36.52 29.4152 33.96C31.8685 31.3733 33.0952 28.3867 33.0952 25C33.0952 21.6133 31.8685 18.64 29.4152 16.08C26.9885 13.4933 24.0285 12.2 20.5352 12.2H17.8952V37.8H20.5352ZM40.1661 17.92C40.1661 15.3333 40.8194 13.4667 42.1261 12.32C43.4328 11.1733 45.5528 10.6 48.4861 10.6C50.5394 10.6 52.1928 11.1333 53.4461 12.2C54.6994 13.2667 55.6061 14.8933 56.1661 17.08L52.4461 19.88H50.4861L54.8061 16.64C54.2461 14.8533 53.4328 13.6 52.3661 12.88C51.3261 12.16 50.0328 11.8 48.4861 11.8C47.4194 11.8 46.5128 11.8667 45.7661 12C45.0461 12.1333 44.3128 12.4 43.5661 12.8C42.8461 13.1733 42.2994 13.7867 41.9261 14.64C41.5528 15.4933 41.3661 16.5867 41.3661 17.92C41.3661 19.0933 41.8994 20.1333 42.9661 21.04C44.0594 21.9467 45.3794 22.72 46.9261 23.36C48.4728 24 50.0194 24.6533 51.5661 25.32C53.1394 25.9867 54.4594 26.84 55.5261 27.88C56.6194 28.92 57.1661 30.12 57.1661 31.48C57.1661 34.1467 56.4994 36.1333 55.1661 37.44C53.8594 38.7467 51.6061 39.4 48.4061 39.4C45.7928 39.4 43.7394 38.88 42.2461 37.84C40.7528 36.7733 39.7261 35.1333 39.1661 32.92L40.2861 32.44C40.8194 34.6 41.7261 36.1067 43.0061 36.96C44.3128 37.7867 46.1128 38.2 48.4061 38.2C50.9661 38.2 52.8594 37.7067 54.0861 36.72C55.3394 35.7333 55.9661 33.9867 55.9661 31.48C55.9661 30.3067 55.4194 29.2667 54.3261 28.36C53.2594 27.4533 51.9394 26.68 50.3661 26.04C48.8194 25.4 47.2728 24.7467 45.7261 24.08C44.1794 23.4133 42.8594 22.56 41.7661 21.52C40.6994 20.48 40.1661 19.28 40.1661 17.92ZM64.748 37.8H79.468L70.988 14.48L62.068 39H60.788L70.988 10.96L81.188 39H64.748V37.8Z" fill="black"/>
</g>
<path d="M0.216091 11V10H-0.783909V11H0.216091ZM2.49609 11H3.49609V10H2.49609V11ZM2.49609 36.76H1.49609V37.76H2.49609V36.76ZM11.3761 36.76H12.3761V35.76H11.3761V36.76ZM11.3761 39V40H12.3761V39H11.3761ZM0.216091 39H-0.783909V40H0.216091V39ZM0.216091 12H2.49609V10H0.216091V12ZM1.49609 11V36.76H3.49609V11H1.49609ZM2.49609 37.76H11.3761V35.76H2.49609V37.76ZM10.3761 36.76V39H12.3761V36.76H10.3761ZM11.3761 38H0.216091V40H11.3761V38ZM1.21609 39V11H-0.783909V39H1.21609ZM16.6952 39H15.6952V40H16.6952V39ZM16.6952 11V10H15.6952V11H16.6952ZM30.2952 15.24L29.5678 15.9262L30.2952 15.24ZM30.2952 34.76L29.5678 34.0738L30.2952 34.76ZM29.4152 33.96L28.6896 33.2718L28.6894 33.272L29.4152 33.96ZM29.4152 16.08L28.6858 16.7642L28.6932 16.7719L29.4152 16.08ZM17.8952 12.2V11.2H16.8952V12.2H17.8952ZM17.8952 37.8H16.8952V38.8H17.8952V37.8ZM20.5352 38H16.6952V40H20.5352V38ZM17.6952 39V11H15.6952V39H17.6952ZM16.6952 12H20.5352V10H16.6952V12ZM20.5352 12C24.0961 12 27.0875 13.2971 29.5678 15.9262L31.0225 14.5538C28.1695 11.5296 24.6542 10 20.5352 10V12ZM29.5678 15.9262C32.0701 18.5787 33.2952 21.5904 33.2952 25H35.2952C35.2952 21.0496 33.8535 17.5546 31.0225 14.5538L29.5678 15.9262ZM33.2952 25C33.2952 28.4095 32.0701 31.4213 29.5678 34.0738L31.0225 35.4462C33.8535 32.4454 35.2952 28.9504 35.2952 25H33.2952ZM29.5678 34.0738C27.0875 36.7029 24.0961 38 20.5352 38V40C24.6542 40 28.1695 38.4704 31.0225 35.4462L29.5678 34.0738ZM20.5352 38.8C24.306 38.8 27.5275 37.405 30.1409 34.648L28.6894 33.272C26.4495 35.635 23.751 36.8 20.5352 36.8V38.8ZM30.1407 34.6482C32.76 31.8865 34.0952 28.6572 34.0952 25H32.0952C32.0952 28.1161 30.977 30.8602 28.6896 33.2718L30.1407 34.6482ZM34.0952 25C34.0952 21.3424 32.7596 18.1246 30.1371 15.3881L28.6932 16.7719C30.9774 19.1554 32.0952 21.8843 32.0952 25H34.0952ZM30.1445 15.3958C27.532 12.6111 24.3095 11.2 20.5352 11.2V13.2C23.7474 13.2 26.4449 14.3755 28.6859 16.7642L30.1445 15.3958ZM20.5352 11.2H17.8952V13.2H20.5352V11.2ZM16.8952 12.2V37.8H18.8952V12.2H16.8952ZM17.8952 38.8H20.5352V36.8H17.8952V38.8ZM42.1261 12.32L41.4665 11.5684L42.1261 12.32ZM53.4461 12.2L52.798 12.9615L53.4461 12.2ZM56.1661 17.08L56.7675 17.879L57.3003 17.4779L57.1348 16.8319L56.1661 17.08ZM52.4461 19.88V20.88H52.7804L53.0475 20.679L52.4461 19.88ZM50.4861 19.88L49.8861 19.08L47.4861 20.88H50.4861V19.88ZM54.8061 16.64L55.4061 17.44L55.9718 17.0157L55.7603 16.3409L54.8061 16.64ZM52.3661 12.88L51.7969 13.7022L51.8066 13.7088L52.3661 12.88ZM45.7661 12L45.5903 11.0156L45.584 11.0167L45.7661 12ZM43.5661 12.8L44.0265 13.6878L44.0383 13.6815L43.5661 12.8ZM41.9261 14.64L42.8423 15.0408L41.9261 14.64ZM42.9661 21.04L42.3184 21.802L42.3278 21.8098L42.9661 21.04ZM46.9261 23.36L47.3084 22.436L46.9261 23.36ZM51.5661 25.32L51.1703 26.2383L51.1759 26.2408L51.5661 25.32ZM55.5261 27.88L54.8279 28.5961L54.8369 28.6046L55.5261 27.88ZM55.1661 37.44L54.4661 36.7257L54.459 36.7329L55.1661 37.44ZM42.2461 37.84L41.6648 38.6538L41.6746 38.6606L42.2461 37.84ZM39.1661 32.92L38.7722 32.0009L37.9872 32.3373L38.1966 33.1653L39.1661 32.92ZM40.2861 32.44L41.2569 32.2003L40.9746 31.0569L39.8922 31.5209L40.2861 32.44ZM43.0061 36.96L42.4514 37.792L42.4613 37.7987L42.4715 37.8051L43.0061 36.96ZM54.0861 36.72L53.4675 35.9342L53.4593 35.9408L54.0861 36.72ZM54.3261 28.36L53.6784 29.122L53.6878 29.1298L54.3261 28.36ZM50.3661 26.04L49.9837 26.964L49.9893 26.9663L50.3661 26.04ZM41.7661 21.52L41.0679 22.2361L41.0769 22.2446L41.7661 21.52ZM41.1661 17.92C41.1661 15.479 41.7832 13.9514 42.7857 13.0716L41.4665 11.5684C39.8557 12.982 39.1661 15.1876 39.1661 17.92H41.1661ZM42.7857 13.0716C43.8204 12.1636 45.6415 11.6 48.4861 11.6V9.6C45.4641 9.6 43.0452 10.183 41.4665 11.5684L42.7857 13.0716ZM48.4861 11.6C50.3626 11.6 51.7669 12.084 52.798 12.9615L54.0942 11.4385C52.6186 10.1826 50.7162 9.6 48.4861 9.6V11.6ZM52.798 12.9615C53.8452 13.8528 54.67 15.269 55.1974 17.3281L57.1348 16.8319C56.5422 14.5177 55.5537 12.6806 54.0942 11.4385L52.798 12.9615ZM55.5647 16.281L51.8447 19.081L53.0475 20.679L56.7675 17.879L55.5647 16.281ZM52.4461 18.88H50.4861V20.88H52.4461V18.88ZM51.0861 20.68L55.4061 17.44L54.2061 15.84L49.8861 19.08L51.0861 20.68ZM55.7603 16.3409C55.1624 14.4333 54.2488 12.9443 52.9256 12.0511L51.8066 13.7088C52.6167 14.2557 53.3298 15.2733 53.8519 16.9391L55.7603 16.3409ZM52.9353 12.0578C51.6939 11.1984 50.1903 10.8 48.4861 10.8V12.8C49.8753 12.8 50.9583 13.1216 51.7969 13.7022L52.9353 12.0578ZM48.4861 10.8C47.3822 10.8 46.413 10.8687 45.5903 11.0156L45.9419 12.9844C46.6125 12.8647 47.4567 12.8 48.4861 12.8V10.8ZM45.584 11.0167C44.7482 11.1715 43.9175 11.4773 43.0939 11.9185L44.0383 13.6815C44.708 13.3227 45.344 13.0952 45.9482 12.9833L45.584 11.0167ZM43.1058 11.9122C42.153 12.4063 41.4607 13.2089 41.0099 14.2392L42.8423 15.0408C43.1382 14.3644 43.5392 13.9404 44.0264 13.6878L43.1058 11.9122ZM41.0099 14.2392C40.5629 15.2611 40.3661 16.5037 40.3661 17.92H42.3661C42.3661 16.6696 42.5427 15.7256 42.8423 15.0408L41.0099 14.2392ZM40.3661 17.92C40.3661 19.4438 41.0758 20.7457 42.3185 21.8019L43.6137 20.2781C42.7231 19.521 42.3661 18.7428 42.3661 17.92H40.3661ZM42.3278 21.8098C43.5105 22.7906 44.9206 23.6124 46.5437 24.284L47.3084 22.436C45.8383 21.8276 44.6083 21.1027 43.6044 20.2702L42.3278 21.8098ZM46.5437 24.284C48.0859 24.9221 49.6281 25.5736 51.1703 26.2383L51.9619 24.4017C50.4108 23.7331 48.8596 23.0779 47.3084 22.436L46.5437 24.284ZM51.1759 26.2408C52.6514 26.866 53.8624 27.6546 54.828 28.596L56.2242 27.164C55.0564 26.0254 53.6274 25.1074 51.9562 24.3992L51.1759 26.2408ZM54.8369 28.6046C55.7558 29.4786 56.1661 30.4254 56.1661 31.48H58.1661C58.1661 29.8146 57.4831 28.3614 56.2153 27.1554L54.8369 28.6046ZM56.1661 31.48C56.1661 33.9943 55.538 35.6754 54.4662 36.7258L55.866 38.1542C57.4609 36.5912 58.1661 34.2991 58.1661 31.48H56.1661ZM54.459 36.7329C53.4374 37.7545 51.5213 38.4 48.4061 38.4V40.4C51.6909 40.4 54.2815 39.7388 55.8732 38.1471L54.459 36.7329ZM48.4061 38.4C45.9117 38.4 44.0846 37.9018 42.8176 37.0194L41.6746 38.6606C43.3942 39.8582 45.6738 40.4 48.4061 40.4V38.4ZM42.8273 37.0263C41.5701 36.1283 40.6521 34.7164 40.1356 32.6747L38.1966 33.1653C38.8001 35.5502 39.9354 37.4184 41.6649 38.6537L42.8273 37.0263ZM39.56 33.8391L40.68 33.3591L39.8922 31.5209L38.7722 32.0009L39.56 33.8391ZM39.3153 32.6797C39.882 34.9752 40.8872 36.7492 42.4514 37.792L43.5608 36.1279C42.565 35.4641 41.7568 34.2248 41.2569 32.2003L39.3153 32.6797ZM42.4715 37.8051C43.9977 38.7707 46.0092 39.2 48.4061 39.2V37.2C46.2163 37.2 44.6278 36.8027 43.5407 36.1149L42.4715 37.8051ZM48.4061 39.2C51.0617 39.2 53.2273 38.6941 54.7129 37.4992L53.4593 35.9408C52.4915 36.7192 50.8705 37.2 48.4061 37.2V39.2ZM54.7047 37.5057C56.3099 36.242 56.9661 34.1166 56.9661 31.48H54.9661C54.9661 33.8567 54.3689 35.2246 53.4675 35.9343L54.7047 37.5057ZM56.9661 31.48C56.9661 29.9463 56.2338 28.6429 54.9644 27.5902L53.6878 29.1298C54.6051 29.8905 54.9661 30.667 54.9661 31.48H56.9661ZM54.9737 27.5981C53.811 26.6097 52.3944 25.7855 50.7429 25.1137L49.9893 26.9663C51.4845 27.5745 52.7079 28.297 53.6785 29.1219L54.9737 27.5981ZM50.7485 25.116C49.2063 24.4779 47.6641 23.8264 46.1219 23.1617L45.3303 24.9983C46.8814 25.6669 48.4325 26.3221 49.9837 26.964L50.7485 25.116ZM46.1219 23.1617C44.6712 22.5364 43.4537 21.7451 42.4553 20.7954L41.0769 22.2446C42.2652 23.3749 43.6877 24.2903 45.3303 24.9983L46.1219 23.1617ZM42.4642 20.804C41.5702 19.9324 41.1661 18.9832 41.1661 17.92H39.1661C39.1661 19.5767 39.8286 21.0276 41.068 22.236L42.4642 20.804ZM64.748 37.8V36.8H63.748V37.8H64.748ZM79.468 37.8V38.8H80.8957L80.4078 37.4583L79.468 37.8ZM70.988 14.48L71.9278 14.1383L70.9882 11.5543L70.0482 14.1381L70.988 14.48ZM62.068 39V40H62.7683L63.0077 39.3419L62.068 39ZM60.788 39L59.8482 38.6581L59.3601 40H60.788V39ZM70.988 10.96L71.9277 10.6181L70.988 8.03475L70.0482 10.6181L70.988 10.96ZM81.188 39V40H82.6158L82.1277 38.6581L81.188 39ZM64.748 39H63.748V40H64.748V39ZM64.748 38.8H79.468V36.8H64.748V38.8ZM80.4078 37.4583L71.9278 14.1383L70.0482 14.8217L78.5282 38.1417L80.4078 37.4583ZM70.0482 14.1381L61.1282 38.6581L63.0077 39.3419L71.9277 14.8219L70.0482 14.1381ZM62.068 38H60.788V40H62.068V38ZM61.7277 39.3419L71.9277 11.3018L70.0482 10.6181L59.8482 38.6581L61.7277 39.3419ZM70.0482 11.3018L80.2482 39.3419L82.1277 38.6581L71.9277 10.6181L70.0482 11.3018ZM81.188 38H64.748V40H81.188V38ZM65.748 39V37.8H63.748V39H65.748Z" fill="black"/>
<defs>
<filter id="filter0_i_0_1" x="0.216095" y="10.6" width="80.9719" height="32.8" filterUnits="userSpaceOnUse" color-interpolation-filters="sRGB">
<feFlood flood-opacity="0" result="BackgroundImageFix"/>
<feBlend mode="normal" in="SourceGraphic" in2="BackgroundImageFix" result="shape"/>
<feColorMatrix in="SourceAlpha" type="matrix" values="0 0 0 0 0 0 0 0 0 0 0 0 0 0 0 0 0 0 127 0" result="hardAlpha"/>
<feOffset dy="4"/>
<feGaussianBlur stdDeviation="2"/>
<feComposite in2="hardAlpha" operator="arithmetic" k2="-1" k3="1"/>
<feColorMatrix type="matrix" values="0 0 0 0 0 0 0 0 0 0 0 0 0 0 0 0 0 0 0.25 0"/>
<feBlend mode="normal" in2="shape" result="effect1_innerShadow_0_1"/>
</filter>
</defs>
</svg>
